<svg id="account" xmlns="http://www.w3.org/2000/svg" width="22" height="22" viewBox="0 0 22 22">
  <defs>
    <style>
      .cls-1 {
        fill: #fff;
      }
    </style>
  </defs>
  <path id="Path_179" data-name="Path 179" class="cls-1" d="M22,11A11,11,0,1,0,11,22,10.994,10.994,0,0,0,22,11ZM11,1.289a9.712,9.712,0,0,1,8.048,15.147,11,11,0,0,0-16.1,0A9.712,9.712,0,0,1,11,1.289ZM3.756,17.467a9.708,9.708,0,0,1,14.488,0A9.7,9.7,0,0,1,3.756,17.467Zm0,0"/>
  <path id="Path_180" data-name="Path 180" class="cls-1" d="M169.867,70.023a3.872,3.872,0,0,0,3.867-3.867V64.867a3.867,3.867,0,0,0-7.734,0v1.289A3.872,3.872,0,0,0,169.867,70.023Zm-2.578-5.156a2.578,2.578,0,0,1,5.156,0v1.289a2.578,2.578,0,0,1-5.156,0Zm0,0" transform="translate(-158.867 -58.379)"/>
</svg>
