<svg xmlns="http://www.w3.org/2000/svg" width="21.935" height="16.451" viewBox="0 0 21.935 16.451">
  <g id="mail" transform="translate(0 -64)">
    <g id="Group_78" data-name="Group 78" transform="translate(0 64)">
      <g id="Group_77" data-name="Group 77">
        <path id="Path_188" data-name="Path 188" d="M7.075,65.335c3.01,2.55,8.293,7.035,9.845,8.434a.917.917,0,0,0,1.327,0c1.554-1.4,6.836-5.886,9.847-8.435a.457.457,0,0,0,.064-.631,1.815,1.815,0,0,0-1.434-.7H8.445a1.815,1.815,0,0,0-1.434.7A.457.457,0,0,0,7.075,65.335Z" transform="translate(-6.617 -64)" fill="#fff"/>
        <path id="Path_189" data-name="Path 189" d="M21.67,126.454a.455.455,0,0,0-.487.066c-3.339,2.83-7.6,6.458-8.94,7.666a1.85,1.85,0,0,1-2.551,0C8.263,132.9,3.478,128.83.752,126.52a.457.457,0,0,0-.752.349v11.492a1.83,1.83,0,0,0,1.828,1.828H20.107a1.83,1.83,0,0,0,1.828-1.828V126.869A.457.457,0,0,0,21.67,126.454Z" transform="translate(0 -123.738)" fill="#fff"/>
      </g>
    </g>
  </g>
</svg>
