<svg xmlns="http://www.w3.org/2000/svg" width="22.698" height="17" viewBox="0 0 22.698 17">
  <g id="open-menu" transform="translate(0 -64.267)">
    <path id="Path_194" d="M20.609,64.267H2.089a2.09,2.09,0,0,0,0,4.179H20.609a2.09,2.09,0,0,0,0-4.179Z" fill="#dedede"/>
    <path id="Path_195" d="M20.609,208.867H2.089a2.09,2.09,0,0,0,0,4.179H20.609a2.09,2.09,0,0,0,0-4.179Z" transform="translate(0 -138.19)" fill="#dedede"/>
    <path id="Path_196" d="M20.609,353.467H2.089a2.09,2.09,0,0,0,0,4.179H20.609a2.09,2.09,0,0,0,0-4.179Z" transform="translate(0 -276.379)" fill="#dedede"/>
  </g>
</svg>
