<svg id="user_1_" data-name="user" xmlns="http://www.w3.org/2000/svg" width="52.942" height="59.145" viewBox="0 0 52.942 59.145">
  <defs>
    <style>
      .cls-1 {
        fill: #948a9a;
      }
    </style>
  </defs>
  <g id="Group_80" data-name="Group 80" transform="translate(11.119)">
    <g id="Group_79" data-name="Group 79">
      <path id="Path_190" data-name="Path 190" class="cls-1" d="M126.147,0A15.356,15.356,0,1,0,141.5,15.356,15.4,15.4,0,0,0,126.147,0Z" transform="translate(-110.791)"/>
    </g>
  </g>
  <g id="Group_82" data-name="Group 82" transform="translate(0 31.811)">
    <g id="Group_81" data-name="Group 81">
      <path id="Path_191" data-name="Path 191" class="cls-1" d="M76.994,259.014a14.315,14.315,0,0,0-1.542-2.816,19.088,19.088,0,0,0-13.21-8.315,2.826,2.826,0,0,0-1.945.469,16.369,16.369,0,0,1-19.313,0,2.516,2.516,0,0,0-1.945-.469,18.949,18.949,0,0,0-13.21,8.315,16.505,16.505,0,0,0-1.542,2.816,1.426,1.426,0,0,0,.067,1.274,26.76,26.76,0,0,0,1.811,2.682,25.489,25.489,0,0,0,3.085,3.487,40.212,40.212,0,0,0,3.085,2.682,30.581,30.581,0,0,0,36.48,0,29.5,29.5,0,0,0,3.085-2.682,30.981,30.981,0,0,0,3.085-3.487,23.518,23.518,0,0,0,1.811-2.682A1.144,1.144,0,0,0,76.994,259.014Z" transform="translate(-24.165 -247.841)"/>
    </g>
  </g>
</svg>
