<svg xmlns="http://www.w3.org/2000/svg" width="18.336" height="18.332" viewBox="0 0 18.336 18.332">
  <defs>
    <style>
      .cls-1 {
        fill: #fff;
      }
    </style>
  </defs>
  <g id="graph" transform="translate(0 -0.05)">
    <g id="Group_72" data-name="Group 72" transform="translate(0 7.25)">
      <g id="Group_71" data-name="Group 71">
        <path id="Path_181" data-name="Path 181" class="cls-1" d="M4.584,187.75H.656a.658.658,0,0,0-.656.656v9.82a.656.656,0,0,0,.656.656H4.584a.656.656,0,0,0,.656-.656v-9.82A.656.656,0,0,0,4.584,187.75Z" transform="translate(0 -187.75)"/>
      </g>
    </g>
    <g id="Group_74" data-name="Group 74" transform="translate(6.548 0.05)">
      <g id="Group_73" data-name="Group 73" transform="translate(0 0)">
        <path id="Path_182" data-name="Path 182" class="cls-1" d="M175.284.05h-3.928A.655.655,0,0,0,170.7.7V17.726a.656.656,0,0,0,.656.656h3.928a.656.656,0,0,0,.656-.656V.706A.656.656,0,0,0,175.284.05Z" transform="translate(-170.7 -0.05)"/>
      </g>
    </g>
    <g id="Group_76" data-name="Group 76" transform="translate(13.096 5.286)">
      <g id="Group_75" data-name="Group 75">
        <path id="Path_183" data-name="Path 183" class="cls-1" d="M345.984,136.55h-3.928a.653.653,0,0,0-.656.656V148.99a.656.656,0,0,0,.656.656h3.928a.656.656,0,0,0,.656-.656V137.206A.656.656,0,0,0,345.984,136.55Z" transform="translate(-341.4 -136.55)"/>
      </g>
    </g>
  </g>
</svg>
