<svg id="insurance" xmlns="http://www.w3.org/2000/svg" width="20.336" height="20.336" viewBox="0 0 20.336 20.336">
  <defs>
    <style>
      .cls-1 {
        fill: #fff;
      }
    </style>
  </defs>
  <path id="Path_184" data-name="Path 184" class="cls-1" d="M279.745,122a1.789,1.789,0,0,0-1.787,1.787v3.691a2.028,2.028,0,0,0-3.027.412l-2.245,3.414A4.159,4.159,0,0,0,272,133.6v3.3a.6.6,0,0,0,.6.6h6.355a.6.6,0,0,0,.6-.6V134.63l1.94-4.656a.6.6,0,0,0,.046-.229v-5.958A1.789,1.789,0,0,0,279.745,122Zm.6,7.626-1.94,4.656a.6.6,0,0,0-.046.229V136.3h-5.163v-2.7a2.971,2.971,0,0,1,.49-1.637l2.245-3.413a.835.835,0,0,1,1.42.876l-2.088,3.6a.6.6,0,0,0,.514.9h.011a.6.6,0,0,0,.516-.3l2.768-4.764a.6.6,0,0,0,.081-.3v-4.766a.6.6,0,1,1,1.192,0v5.839Z" transform="translate(-261.196 -117.154)"/>
  <path id="Path_185" data-name="Path 185" class="cls-1" d="M6.6,127.89a2.027,2.027,0,0,0-3.027-.412v-3.691a1.787,1.787,0,0,0-3.575,0v5.958a.6.6,0,0,0,.046.229l1.94,4.656v2.264a.6.6,0,0,0,.6.6H8.937a.6.6,0,0,0,.6-.6v-3.3a4.159,4.159,0,0,0-.686-2.292ZM8.341,136.3H3.177v-1.787a.6.6,0,0,0-.046-.229l-1.94-4.656v-5.839a.6.6,0,0,1,1.192,0v4.766a.6.6,0,0,0,.081.3l2.768,4.764a.6.6,0,0,0,.517.3H5.76a.6.6,0,0,0,.514-.9l-2.088-3.6a.835.835,0,0,1,1.42-.876l2.245,3.413a2.971,2.971,0,0,1,.49,1.637v2.7Z" transform="translate(0 -117.154)"/>
  <path id="Path_186" data-name="Path 186" class="cls-1" d="M148.916,9.267a6.125,6.125,0,0,0,1.22-3.683v-3.4a.6.6,0,0,0-.6-.6A1.964,1.964,0,0,1,147.773.5l-.084-.168A.6.6,0,0,0,147.156,0h-3.177a.6.6,0,0,0-.533.329L143.362.5A1.964,1.964,0,0,1,141.6,1.589a.6.6,0,0,0-.6.6v3.4a6.169,6.169,0,0,0,4.4,5.909.6.6,0,0,0,.342,0,6.126,6.126,0,0,0,3.177-2.226Zm-3.348,1.03a4.945,4.945,0,0,1-3.376-4.713V2.725a3.143,3.143,0,0,0,2.15-1.533h2.453a3.144,3.144,0,0,0,2.15,1.533v2.86A4.945,4.945,0,0,1,145.568,10.3Z" transform="translate(-135.4)"/>
  <path id="Path_187" data-name="Path 187" class="cls-1" d="M202.117,101.89l-1.826,1.826-.7-.7a.6.6,0,1,0-.843.843l1.123,1.123a.6.6,0,0,0,.843,0l2.247-2.247a.6.6,0,1,0-.842-.843Z" transform="translate(-190.685 -97.675)"/>
</svg>
